<svg width="161" height="18" viewBox="0 0 161 18" fill="none" xmlns="http://www.w3.org/2000/svg">
<path d="M151.652 17.1912C150.028 17.1912 148.557 16.8389 147.24 16.1342C145.938 15.4296 144.904 14.4491 144.138 13.193C143.387 11.9215 143.012 10.4662 143.012 8.82708C143.012 7.18795 143.387 5.73265 144.138 4.46117C144.904 3.1897 145.938 2.20162 147.24 1.49695C148.557 0.792278 150.028 0.439941 151.652 0.439941C153.26 0.439941 154.715 0.792278 156.018 1.49695C157.335 2.20162 158.369 3.1897 159.12 4.46117C159.87 5.73265 160.246 7.18795 160.246 8.82708C160.246 10.4662 159.87 11.9215 159.12 13.193C158.369 14.4491 157.335 15.4296 156.018 16.1342C154.715 16.8389 153.26 17.1912 151.652 17.1912ZM151.652 13.3768C152.464 13.3768 153.207 13.193 153.881 12.8253C154.555 12.4577 155.091 11.9292 155.489 11.2398C155.887 10.5505 156.086 9.74622 156.086 8.82708C156.086 7.90794 155.887 7.11135 155.489 6.43732C155.106 5.74796 154.578 5.21946 153.904 4.85181C153.229 4.46883 152.479 4.27734 151.652 4.27734C150.809 4.27734 150.051 4.46883 149.377 4.85181C148.703 5.21946 148.167 5.74796 147.768 6.43732C147.385 7.11135 147.194 7.90794 147.194 8.82708C147.194 9.74622 147.385 10.5505 147.768 11.2398C148.167 11.9292 148.703 12.4577 149.377 12.8253C150.066 13.193 150.824 13.3768 151.652 13.3768Z" fill="#4AC286"/>
<path d="M133.57 17.1912C131.947 17.1912 130.476 16.8389 129.158 16.1342C127.856 15.4296 126.822 14.4491 126.056 13.193C125.306 11.9215 124.93 10.4662 124.93 8.82708C124.93 7.18795 125.306 5.73265 126.056 4.46117C126.822 3.1897 127.856 2.20162 129.158 1.49695C130.476 0.792278 131.947 0.439941 133.57 0.439941C135.179 0.439941 136.634 0.792278 137.936 1.49695C139.254 2.20162 140.288 3.1897 141.038 4.46117C141.789 5.73265 142.164 7.18795 142.164 8.82708C142.164 10.4662 141.789 11.9215 141.038 13.193C140.288 14.4491 139.254 15.4296 137.936 16.1342C136.634 16.8389 135.179 17.1912 133.57 17.1912ZM133.57 13.3768C134.382 13.3768 135.125 13.193 135.799 12.8253C136.473 12.4577 137.009 11.9292 137.408 11.2398C137.806 10.5505 138.005 9.74622 138.005 8.82708C138.005 7.90794 137.806 7.11135 137.408 6.43732C137.025 5.74796 136.496 5.21946 135.822 4.85181C135.148 4.46883 134.398 4.27734 133.57 4.27734C132.728 4.27734 131.969 4.46883 131.295 4.85181C130.621 5.21946 130.085 5.74796 129.687 6.43732C129.304 7.11135 129.112 7.90794 129.112 8.82708C129.112 9.74622 129.304 10.5505 129.687 11.2398C130.085 11.9292 130.621 12.4577 131.295 12.8253C131.985 13.193 132.743 13.3768 133.57 13.3768Z" fill="#4AC286"/>
<path d="M110.899 0.784668H119.033C120.581 0.784668 121.798 1.16764 122.687 1.93359C123.591 2.69954 124.043 3.79485 124.043 5.21951C124.043 5.89355 123.89 6.52162 123.583 7.10374C123.277 7.68586 122.84 8.14543 122.273 8.48245C123.055 8.78883 123.629 9.23308 123.997 9.8152C124.364 10.382 124.548 11.125 124.548 12.0441C124.548 13.0245 124.318 13.8824 123.859 14.6177C123.399 15.3377 122.779 15.8892 121.998 16.2721C121.232 16.6551 120.374 16.8466 119.424 16.8466H110.899V0.784668ZM118.137 7.1497C119.332 7.1497 119.93 6.59056 119.93 5.47227C119.93 4.8442 119.776 4.41526 119.47 4.18548C119.164 3.94038 118.696 3.81783 118.068 3.81783H114.966V7.1497H118.137ZM118.39 13.8135C119.079 13.8135 119.593 13.6832 119.93 13.4228C120.267 13.1624 120.435 12.7028 120.435 12.0441C120.435 11.3854 120.259 10.9105 119.907 10.6194C119.554 10.3131 119.018 10.1599 118.298 10.1599H114.966V13.8135H118.39Z" fill="#4AC286"/>
<path d="M91.92 0.784668H95.8264L100.468 10.7343L105.133 0.784668H109.016V16.8466H105.225V8.78117L101.387 16.8466H99.5489L95.7345 8.78117V16.8466H91.92V0.784668Z" fill="#4AC286"/>
<path d="M80.6657 0.784668H84.6639L91.0749 16.8466H86.9158L85.629 13.5377H79.7006L78.4138 16.8466H74.2317L80.6657 0.784668ZM84.618 10.4126L82.6648 5.0127L80.6886 10.4126H84.618Z" fill="#4AC286"/>
<path d="M61.1204 0.784668H69.2547C70.8019 0.784668 72.0198 1.16764 72.9083 1.93359C73.8121 2.69954 74.264 3.79485 74.264 5.21951C74.264 5.89355 74.1109 6.52162 73.8045 7.10374C73.4981 7.68586 73.0615 8.14543 72.4947 8.48245C73.276 8.78883 73.8504 9.23308 74.2181 9.8152C74.5857 10.382 74.7696 11.125 74.7696 12.0441C74.7696 13.0245 74.5398 13.8824 74.0802 14.6177C73.6206 15.3377 73.0002 15.8892 72.219 16.2721C71.453 16.6551 70.5951 16.8466 69.6454 16.8466H61.1204V0.784668ZM68.3586 7.1497C69.5535 7.1497 70.1509 6.59056 70.1509 5.47227C70.1509 4.8442 69.9977 4.41526 69.6913 4.18548C69.3849 3.94038 68.9177 3.81783 68.2896 3.81783H65.1875V7.1497H68.3586ZM68.6113 13.8135C69.3007 13.8135 69.8139 13.6832 70.1509 13.4228C70.4879 13.1624 70.6564 12.7028 70.6564 12.0441C70.6564 11.3854 70.4803 10.9105 70.1279 10.6194C69.7756 10.3131 69.2394 10.1599 68.5194 10.1599H65.1875V13.8135H68.6113Z" fill="#4AC286"/>
<path d="M38.0465 0.784668H42.2286L44.9171 10.2977L47.5136 0.784668H50.4089L52.8446 10.3207L55.5101 0.784668H59.6922L55.2574 16.8466H51.5119L48.8694 7.51736L46.2498 16.8466H42.4814L38.0465 0.784668Z" fill="#4AC286"/>
<path d="M29.9963 17.1912C28.3725 17.1912 26.9019 16.8389 25.5845 16.1342C24.2824 15.4296 23.2483 14.4491 22.4824 13.193C21.7318 11.9215 21.3564 10.4662 21.3564 8.82708C21.3564 7.18795 21.7318 5.73265 22.4824 4.46117C23.2483 3.1897 24.2824 2.20162 25.5845 1.49695C26.9019 0.792278 28.3725 0.439941 29.9963 0.439941C31.6048 0.439941 33.0601 0.792278 34.3623 1.49695C35.6797 2.20162 36.7137 3.1897 37.4643 4.46117C38.215 5.73265 38.5903 7.18795 38.5903 8.82708C38.5903 10.4662 38.215 11.9215 37.4643 13.193C36.7137 14.4491 35.6797 15.4296 34.3623 16.1342C33.0601 16.8389 31.6048 17.1912 29.9963 17.1912ZM29.9963 13.3768C30.8083 13.3768 31.5512 13.193 32.2253 12.8253C32.8993 12.4577 33.4355 11.9292 33.8337 11.2398C34.232 10.5505 34.4312 9.74622 34.4312 8.82708C34.4312 7.90794 34.232 7.11135 33.8337 6.43732C33.4508 5.74796 32.9223 5.21946 32.2482 4.85181C31.5742 4.46883 30.8236 4.27734 29.9963 4.27734C29.1538 4.27734 28.3955 4.46883 27.7215 4.85181C27.0474 5.21946 26.5113 5.74796 26.113 6.43732C25.73 7.11135 25.5385 7.90794 25.5385 8.82708C25.5385 9.74622 25.73 10.5505 26.113 11.2398C26.5113 11.9292 27.0474 12.4577 27.7215 12.8253C28.4108 13.193 29.1691 13.3768 29.9963 13.3768Z" fill="#4AC286"/>
<path d="M0.245605 0.784668H4.42769L7.11616 10.2977L9.71273 0.784668H12.608L15.0437 10.3207L17.7092 0.784668H21.8913L17.4565 16.8466H13.711L11.0685 7.51736L8.44892 16.8466H4.68045L0.245605 0.784668Z" fill="#4AC286"/>
</svg>
